<?xml version="1.0" encoding="UTF-8" standalone="no"?>
<!DOCTYPE svg PUBLIC "-//W3C//DTD SVG 1.1//EN"
 "http://www.w3.org/Graphics/SVG/1.1/DTD/svg11.dtd">
<!-- Generated by graphviz version 2.40.1 (20161225.0304)
 -->
<!-- Title: G Pages: 1 -->
<svg width="218pt" height="406pt"
 viewBox="0.00 0.00 217.51 406.00" xmlns="http://www.w3.org/2000/svg" xmlns:xlink="http://www.w3.org/1999/xlink">
<g id="graph0" class="graph" transform="scale(1 1) rotate(0) translate(4 402)">
<title>G</title>
<!-- A0 -->
<g id="node1" class="node">
<title>A0</title>
<ellipse fill="none" stroke="#FFFFFF" cx="102.2305" cy="-387" rx="11" ry="11"/>
</g>
<!-- A1 -->
<g id="node2" class="node">
<title>A1</title>
<path fill="none" stroke="#FFFFFF" d="M141.7066,-339C141.7066,-339 62.7544,-339 62.7544,-339 56.7544,-339 50.7544,-333 50.7544,-327 50.7544,-327 50.7544,-315 50.7544,-315 50.7544,-309 56.7544,-303 62.7544,-303 62.7544,-303 141.7066,-303 141.7066,-303 147.7066,-303 153.7066,-309 153.7066,-315 153.7066,-315 153.7066,-327 153.7066,-327 153.7066,-333 147.7066,-339 141.7066,-339"/>
<text text-anchor="middle" x="102.2305" y="-318" font-family="Helvetica,sans-Serif" font-size="10.00" fill="#FFFFFF">Start Event Loop</text>
</g>
<!-- A0&#45;&gt;A1 -->
<g id="edge1" class="edge">
<title>A0&#45;&gt;A1</title>
<path fill="none" stroke="#FFFFFF" d="M102.2305,-375.804C102.2305,-368.5358 102.2305,-358.7135 102.2305,-349.3916"/>
<polygon fill="#FFFFFF" stroke="#FFFFFF" points="102.2305,-339.2423 106.7306,-349.2423 102.2305,-344.2423 102.2306,-349.2423 102.2306,-349.2423 102.2306,-349.2423 102.2305,-344.2423 97.7306,-349.2424 102.2305,-339.2423 102.2305,-339.2423"/>
</g>
<!-- A2 -->
<g id="node3" class="node">
<title>A2</title>
<path fill="none" stroke="#FFFFFF" d="M156.8012,-266C156.8012,-266 47.6598,-266 47.6598,-266 41.6598,-266 35.6598,-260 35.6598,-254 35.6598,-254 35.6598,-242 35.6598,-242 35.6598,-236 41.6598,-230 47.6598,-230 47.6598,-230 156.8012,-230 156.8012,-230 162.8012,-230 168.8012,-236 168.8012,-242 168.8012,-242 168.8012,-254 168.8012,-254 168.8012,-260 162.8012,-266 156.8012,-266"/>
<text text-anchor="middle" x="102.2305" y="-245" font-family="Helvetica,sans-Serif" font-size="10.00" fill="#FFFFFF">Check for Event/Trigger</text>
</g>
<!-- A1&#45;&gt;A2 -->
<g id="edge2" class="edge">
<title>A1&#45;&gt;A2</title>
<path fill="none" stroke="#FFFFFF" d="M102.2305,-302.9551C102.2305,-294.8828 102.2305,-285.1764 102.2305,-276.1817"/>
<polygon fill="#FFFFFF" stroke="#FFFFFF" points="102.2305,-266.0904 106.7306,-276.0903 102.2305,-271.0904 102.2306,-276.0904 102.2306,-276.0904 102.2306,-276.0904 102.2305,-271.0904 97.7306,-276.0904 102.2305,-266.0904 102.2305,-266.0904"/>
</g>
<!-- A3 -->
<g id="node4" class="node">
<title>A3</title>
<path fill="none" stroke="#FFFFFF" d="M80.6927,-182C80.6927,-182 11.7683,-182 11.7683,-182 5.7683,-182 -.2317,-176 -.2317,-170 -.2317,-170 -.2317,-158 -.2317,-158 -.2317,-152 5.7683,-146 11.7683,-146 11.7683,-146 80.6927,-146 80.6927,-146 86.6927,-146 92.6927,-152 92.6927,-158 92.6927,-158 92.6927,-170 92.6927,-170 92.6927,-176 86.6927,-182 80.6927,-182"/>
<text text-anchor="middle" x="46.2305" y="-161" font-family="Helvetica,sans-Serif" font-size="10.00" fill="#FFFFFF">Process Event</text>
</g>
<!-- A2&#45;&gt;A3 -->
<g id="edge3" class="edge">
<title>A2&#45;&gt;A3</title>
<path fill="none" stroke="#FFFFFF" d="M90.0793,-229.7733C82.4475,-218.3254 72.4733,-203.3641 63.9662,-190.6036"/>
<polygon fill="#FFFFFF" stroke="#FFFFFF" points="58.358,-182.1912 67.6492,-188.0155 61.1315,-186.3514 63.905,-190.5117 63.905,-190.5117 63.905,-190.5117 61.1315,-186.3514 60.1608,-193.0079 58.358,-182.1912 58.358,-182.1912"/>
<text text-anchor="middle" x="96.286" y="-203" font-family="Helvetica,sans-Serif" font-size="10.00" fill="#FFFFFF">&#45; Polling</text>
</g>
<!-- A4 -->
<g id="node5" class="node">
<title>A4</title>
<path fill="none" stroke="#FFFFFF" d="M197.2895,-182C197.2895,-182 123.1715,-182 123.1715,-182 117.1715,-182 111.1715,-176 111.1715,-170 111.1715,-170 111.1715,-158 111.1715,-158 111.1715,-152 117.1715,-146 123.1715,-146 123.1715,-146 197.2895,-146 197.2895,-146 203.2895,-146 209.2895,-152 209.2895,-158 209.2895,-158 209.2895,-170 209.2895,-170 209.2895,-176 203.2895,-182 197.2895,-182"/>
<text text-anchor="middle" x="160.2305" y="-161" font-family="Helvetica,sans-Serif" font-size="10.00" fill="#FFFFFF">Process Trigger</text>
</g>
<!-- A2&#45;&gt;A4 -->
<g id="edge4" class="edge">
<title>A2&#45;&gt;A4</title>
<path fill="none" stroke="#FFFFFF" d="M114.8156,-229.7733C122.7201,-218.3254 133.0505,-203.3641 141.8614,-190.6036"/>
<polygon fill="#FFFFFF" stroke="#FFFFFF" points="147.6699,-182.1912 145.691,-192.977 144.829,-186.3057 141.988,-190.4202 141.988,-190.4202 141.988,-190.4202 144.829,-186.3057 138.2849,-187.8633 147.6699,-182.1912 147.6699,-182.1912"/>
<text text-anchor="middle" x="145.618" y="-203" font-family="Helvetica,sans-Serif" font-size="10.00" fill="#FFFFFF">&#45; ISR</text>
</g>
<!-- A5 -->
<g id="node6" class="node">
<title>A5</title>
<path fill="none" stroke="#FFFFFF" d="M151.6924,-109C151.6924,-109 52.7686,-109 52.7686,-109 46.7686,-109 40.7686,-103 40.7686,-97 40.7686,-97 40.7686,-85 40.7686,-85 40.7686,-79 46.7686,-73 52.7686,-73 52.7686,-73 151.6924,-73 151.6924,-73 157.6924,-73 163.6924,-79 163.6924,-85 163.6924,-85 163.6924,-97 163.6924,-97 163.6924,-103 157.6924,-109 151.6924,-109"/>
<text text-anchor="middle" x="102.2305" y="-88" font-family="Helvetica,sans-Serif" font-size="10.00" fill="#FFFFFF">Handle Event/Trigger</text>
</g>
<!-- A3&#45;&gt;A5 -->
<g id="edge5" class="edge">
<title>A3&#45;&gt;A5</title>
<path fill="none" stroke="#FFFFFF" d="M60.0732,-145.9551C66.7367,-137.2686 74.852,-126.6898 82.1764,-117.142"/>
<polygon fill="#FFFFFF" stroke="#FFFFFF" points="88.353,-109.0904 85.8368,-119.7637 85.3096,-113.0575 82.2663,-117.0247 82.2663,-117.0247 82.2663,-117.0247 85.3096,-113.0575 78.6959,-114.2857 88.353,-109.0904 88.353,-109.0904"/>
</g>
<!-- A4&#45;&gt;A5 -->
<g id="edge6" class="edge">
<title>A4&#45;&gt;A5</title>
<path fill="none" stroke="#FFFFFF" d="M145.8934,-145.9551C138.9919,-137.2686 130.5868,-126.6898 123.0009,-117.142"/>
<polygon fill="#FFFFFF" stroke="#FFFFFF" points="116.6037,-109.0904 126.3478,-114.1206 119.7141,-113.0052 122.8245,-116.92 122.8245,-116.92 122.8245,-116.92 119.7141,-113.0052 119.3011,-119.7193 116.6037,-109.0904 116.6037,-109.0904"/>
</g>
<!-- A6 -->
<g id="node7" class="node">
<title>A6</title>
<path fill="none" stroke="#FFFFFF" d="M139.8776,-36C139.8776,-36 64.5834,-36 64.5834,-36 58.5834,-36 52.5834,-30 52.5834,-24 52.5834,-24 52.5834,-12 52.5834,-12 52.5834,-6 58.5834,0 64.5834,0 64.5834,0 139.8776,0 139.8776,0 145.8776,0 151.8776,-6 151.8776,-12 151.8776,-12 151.8776,-24 151.8776,-24 151.8776,-30 145.8776,-36 139.8776,-36"/>
<text text-anchor="middle" x="102.2305" y="-15" font-family="Helvetica,sans-Serif" font-size="10.00" fill="#FFFFFF">End Event Loop</text>
</g>
<!-- A5&#45;&gt;A6 -->
<g id="edge7" class="edge">
<title>A5&#45;&gt;A6</title>
<path fill="none" stroke="#FFFFFF" d="M102.2305,-72.9551C102.2305,-64.8828 102.2305,-55.1764 102.2305,-46.1817"/>
<polygon fill="#FFFFFF" stroke="#FFFFFF" points="102.2305,-36.0904 106.7306,-46.0903 102.2305,-41.0904 102.2306,-46.0904 102.2306,-46.0904 102.2306,-46.0904 102.2305,-41.0904 97.7306,-46.0904 102.2305,-36.0904 102.2305,-36.0904"/>
</g>
</g>
</svg>
