<?xml version="1.0" encoding="UTF-8" standalone="no"?>
<!DOCTYPE svg PUBLIC "-//W3C//DTD SVG 1.1//EN"
 "http://www.w3.org/Graphics/SVG/1.1/DTD/svg11.dtd">
<!-- Generated by graphviz version 2.40.1 (20161225.0304)
 -->
<!-- Title: G Pages: 1 -->
<svg width="102pt" height="318pt"
 viewBox="0.00 0.00 101.57 318.00" xmlns="http://www.w3.org/2000/svg" xmlns:xlink="http://www.w3.org/1999/xlink">
<g id="graph0" class="graph" transform="scale(1 1) rotate(0) translate(4 314)">
<title>G</title>
<!-- A0 -->
<g id="node1" class="node">
<title>A0</title>
<ellipse fill="none" stroke="#FFFFFF" cx="46.783" cy="-299" rx="11" ry="11"/>
</g>
<!-- A1 -->
<g id="node2" class="node">
<title>A1</title>
<path fill="none" stroke="#FFFFFF" d="M74.3921,-252C74.3921,-252 19.1739,-252 19.1739,-252 13.1739,-252 7.1739,-246 7.1739,-240 7.1739,-240 7.1739,-228 7.1739,-228 7.1739,-222 13.1739,-216 19.1739,-216 19.1739,-216 74.3921,-216 74.3921,-216 80.3921,-216 86.3921,-222 86.3921,-228 86.3921,-228 86.3921,-240 86.3921,-240 86.3921,-246 80.3921,-252 74.3921,-252"/>
<text text-anchor="middle" x="46.783" y="-231" font-family="Helvetica,sans-Serif" font-size="10.00" fill="#FFFFFF">Trigger ISR</text>
</g>
<!-- A0&#45;&gt;A1 -->
<g id="edge1" class="edge">
<title>A0&#45;&gt;A1</title>
<path fill="none" stroke="#FFFFFF" d="M46.783,-287.9736C46.783,-280.9446 46.783,-271.49 46.783,-262.4584"/>
<polygon fill="#FFFFFF" stroke="#FFFFFF" points="46.783,-252.2209 51.2831,-262.2209 46.783,-257.2209 46.7831,-262.2209 46.7831,-262.2209 46.7831,-262.2209 46.783,-257.2209 42.2831,-262.221 46.783,-252.2209 46.783,-252.2209"/>
</g>
<!-- A2 -->
<g id="node3" class="node">
<title>A2</title>
<path fill="none" stroke="#FFFFFF" d="M76.3551,-180C76.3551,-180 17.2109,-180 17.2109,-180 11.2109,-180 5.2109,-174 5.2109,-168 5.2109,-168 5.2109,-156 5.2109,-156 5.2109,-150 11.2109,-144 17.2109,-144 17.2109,-144 76.3551,-144 76.3551,-144 82.3551,-144 88.3551,-150 88.3551,-156 88.3551,-156 88.3551,-168 88.3551,-168 88.3551,-174 82.3551,-180 76.3551,-180"/>
<text text-anchor="middle" x="46.783" y="-159" font-family="Helvetica,sans-Serif" font-size="10.00" fill="#FFFFFF">Execute ISR</text>
</g>
<!-- A1&#45;&gt;A2 -->
<g id="edge2" class="edge">
<title>A1&#45;&gt;A2</title>
<path fill="none" stroke="#FFFFFF" d="M46.783,-215.8314C46.783,-208.131 46.783,-198.9743 46.783,-190.4166"/>
<polygon fill="#FFFFFF" stroke="#FFFFFF" points="46.783,-180.4133 51.2831,-190.4132 46.783,-185.4133 46.7831,-190.4133 46.7831,-190.4133 46.7831,-190.4133 46.783,-185.4133 42.2831,-190.4133 46.783,-180.4133 46.783,-180.4133"/>
</g>
<!-- A3 -->
<g id="node4" class="node">
<title>A3</title>
<path fill="none" stroke="#FFFFFF" d="M80.6781,-108C80.6781,-108 12.8879,-108 12.8879,-108 6.8879,-108 .8879,-102 .8879,-96 .8879,-96 .8879,-84 .8879,-84 .8879,-78 6.8879,-72 12.8879,-72 12.8879,-72 80.6781,-72 80.6781,-72 86.6781,-72 92.6781,-78 92.6781,-84 92.6781,-84 92.6781,-96 92.6781,-96 92.6781,-102 86.6781,-108 80.6781,-108"/>
<text text-anchor="middle" x="46.783" y="-87" font-family="Helvetica,sans-Serif" font-size="10.00" fill="#FFFFFF">Clear Interrupt</text>
</g>
<!-- A2&#45;&gt;A3 -->
<g id="edge3" class="edge">
<title>A2&#45;&gt;A3</title>
<path fill="none" stroke="#FFFFFF" d="M46.783,-143.8314C46.783,-136.131 46.783,-126.9743 46.783,-118.4166"/>
<polygon fill="#FFFFFF" stroke="#FFFFFF" points="46.783,-108.4133 51.2831,-118.4132 46.783,-113.4133 46.7831,-118.4133 46.7831,-118.4133 46.7831,-118.4133 46.783,-113.4133 42.2831,-118.4133 46.783,-108.4133 46.783,-108.4133"/>
</g>
<!-- A4 -->
<g id="node5" class="node">
<title>A4</title>
<path fill="none" stroke="#FFFFFF" d="M81.35,-36C81.35,-36 12.216,-36 12.216,-36 6.216,-36 .216,-30 .216,-24 .216,-24 .216,-12 .216,-12 .216,-6 6.216,0 12.216,0 12.216,0 81.35,0 81.35,0 87.35,0 93.35,-6 93.35,-12 93.35,-12 93.35,-24 93.35,-24 93.35,-30 87.35,-36 81.35,-36"/>
<text text-anchor="middle" x="46.783" y="-15" font-family="Helvetica,sans-Serif" font-size="10.00" fill="#FFFFFF">Return to Main</text>
</g>
<!-- A3&#45;&gt;A4 -->
<g id="edge4" class="edge">
<title>A3&#45;&gt;A4</title>
<path fill="none" stroke="#FFFFFF" d="M46.783,-71.8314C46.783,-64.131 46.783,-54.9743 46.783,-46.4166"/>
<polygon fill="#FFFFFF" stroke="#FFFFFF" points="46.783,-36.4133 51.2831,-46.4132 46.783,-41.4133 46.7831,-46.4133 46.7831,-46.4133 46.7831,-46.4133 46.783,-41.4133 42.2831,-46.4133 46.783,-36.4133 46.783,-36.4133"/>
</g>
</g>
</svg>
