<?xml version="1.0" encoding="UTF-8" standalone="no"?>
<!DOCTYPE svg PUBLIC "-//W3C//DTD SVG 1.1//EN"
 "http://www.w3.org/Graphics/SVG/1.1/DTD/svg11.dtd">
<!-- Generated by graphviz version 2.40.1 (20161225.0304)
 -->
<!-- Title: G Pages: 1 -->
<svg width="158pt" height="333pt"
 viewBox="0.00 0.00 157.96 333.00" xmlns="http://www.w3.org/2000/svg" xmlns:xlink="http://www.w3.org/1999/xlink">
<g id="graph0" class="graph" transform="scale(1 1) rotate(0) translate(4 329)">
<title>G</title>
<!-- A0 -->
<g id="node1" class="node">
<title>A0</title>
<ellipse fill="none" stroke="#FFFFFF" cx="114.6765" cy="-314" rx="11" ry="11"/>
</g>
<!-- A1 -->
<g id="node2" class="node">
<title>A1</title>
<path fill="none" stroke="#FFFFFF" d="M104.5736,-255C104.5736,-255 46.7794,-255 46.7794,-255 40.7794,-255 34.7794,-249 34.7794,-243 34.7794,-243 34.7794,-231 34.7794,-231 34.7794,-225 40.7794,-219 46.7794,-219 46.7794,-219 104.5736,-219 104.5736,-219 110.5736,-219 116.5736,-225 116.5736,-231 116.5736,-231 116.5736,-243 116.5736,-243 116.5736,-249 110.5736,-255 104.5736,-255"/>
<text text-anchor="middle" x="75.6765" y="-234" font-family="Helvetica,sans-Serif" font-size="10.00" fill="#FFFFFF">Start Polling</text>
</g>
<!-- A0&#45;&gt;A1 -->
<g id="edge1" class="edge">
<title>A0&#45;&gt;A1</title>
<path fill="none" stroke="#FFFFFF" d="M104.9939,-308.444C97.1759,-303.3971 86.621,-295.1926 81.2385,-285 78.1021,-279.0608 76.3835,-272.1416 75.5026,-265.4364"/>
<polygon fill="#FFFFFF" stroke="#FFFFFF" points="74.7245,-255.2473 79.9729,-264.8756 75.1053,-260.2328 75.486,-265.2183 75.486,-265.2183 75.486,-265.2183 75.1053,-260.2328 70.9991,-265.5609 74.7245,-255.2473 74.7245,-255.2473"/>
<text text-anchor="middle" x="108.8955" y="-276" font-family="Helvetica,sans-Serif" font-size="10.00" fill="#FFFFFF">&#45; While True</text>
</g>
<!-- A2 -->
<g id="node3" class="node">
<title>A2</title>
<path fill="none" stroke="#FFFFFF" d="M109.53,-182C109.53,-182 11.823,-182 11.823,-182 5.823,-182 -.177,-176 -.177,-170 -.177,-170 -.177,-158 -.177,-158 -.177,-152 5.823,-146 11.823,-146 11.823,-146 109.53,-146 109.53,-146 115.53,-146 121.53,-152 121.53,-158 121.53,-158 121.53,-170 121.53,-170 121.53,-176 115.53,-182 109.53,-182"/>
<text text-anchor="middle" x="60.6765" y="-161" font-family="Helvetica,sans-Serif" font-size="10.00" fill="#FFFFFF">Check for Event/Flag</text>
</g>
<!-- A1&#45;&gt;A2 -->
<g id="edge2" class="edge">
<title>A1&#45;&gt;A2</title>
<path fill="none" stroke="#FFFFFF" d="M71.9686,-218.9551C70.2919,-210.7951 68.2721,-200.9652 66.4071,-191.8887"/>
<polygon fill="#FFFFFF" stroke="#FFFFFF" points="64.3937,-182.0904 70.8144,-190.9799 65.4001,-186.988 66.4065,-191.8857 66.4065,-191.8857 66.4065,-191.8857 65.4001,-186.988 61.9986,-192.7915 64.3937,-182.0904 64.3937,-182.0904"/>
</g>
<!-- A3 -->
<g id="node4" class="node">
<title>A3</title>
<path fill="none" stroke="#FFFFFF" d="M106.1387,-109C106.1387,-109 37.2143,-109 37.2143,-109 31.2143,-109 25.2143,-103 25.2143,-97 25.2143,-97 25.2143,-85 25.2143,-85 25.2143,-79 31.2143,-73 37.2143,-73 37.2143,-73 106.1387,-73 106.1387,-73 112.1387,-73 118.1387,-79 118.1387,-85 118.1387,-85 118.1387,-97 118.1387,-97 118.1387,-103 112.1387,-109 106.1387,-109"/>
<text text-anchor="middle" x="71.6765" y="-88" font-family="Helvetica,sans-Serif" font-size="10.00" fill="#FFFFFF">Process Event</text>
</g>
<!-- A2&#45;&gt;A3 -->
<g id="edge3" class="edge">
<title>A2&#45;&gt;A3</title>
<path fill="none" stroke="#FFFFFF" d="M63.3956,-145.9551C64.612,-137.8828 66.0746,-128.1764 67.4299,-119.1817"/>
<polygon fill="#FFFFFF" stroke="#FFFFFF" points="68.9506,-109.0904 71.9102,-119.6493 68.2055,-114.0345 67.4604,-118.9787 67.4604,-118.9787 67.4604,-118.9787 68.2055,-114.0345 63.0107,-118.3082 68.9506,-109.0904 68.9506,-109.0904"/>
</g>
<!-- A4 -->
<g id="node5" class="node">
<title>A4</title>
<path fill="none" stroke="#FFFFFF" d="M137.7467,-36C137.7467,-36 83.6063,-36 83.6063,-36 77.6063,-36 71.6063,-30 71.6063,-24 71.6063,-24 71.6063,-12 71.6063,-12 71.6063,-6 77.6063,0 83.6063,0 83.6063,0 137.7467,0 137.7467,0 143.7467,0 149.7467,-6 149.7467,-12 149.7467,-12 149.7467,-24 149.7467,-24 149.7467,-30 143.7467,-36 137.7467,-36"/>
<text text-anchor="middle" x="110.6765" y="-15" font-family="Helvetica,sans-Serif" font-size="10.00" fill="#FFFFFF">End Polling</text>
</g>
<!-- A3&#45;&gt;A4 -->
<g id="edge4" class="edge">
<title>A3&#45;&gt;A4</title>
<path fill="none" stroke="#FFFFFF" d="M81.317,-72.9551C85.817,-64.5319 91.2677,-54.3292 96.245,-45.0128"/>
<polygon fill="#FFFFFF" stroke="#FFFFFF" points="101.0118,-36.0904 100.2687,-47.031 98.6557,-40.5005 96.2996,-44.9106 96.2996,-44.9106 96.2996,-44.9106 98.6557,-40.5005 92.3305,-42.7901 101.0118,-36.0904 101.0118,-36.0904"/>
</g>
<!-- A4&#45;&gt;A0 -->
<g id="edge5" class="edge">
<title>A4&#45;&gt;A0</title>
<path fill="none" stroke="#FFFFFF" d="M126.7645,-36.103C137.5074,-50.0824 149.6765,-70.4525 149.6765,-91 149.6765,-237 149.6765,-237 149.6765,-237 149.6765,-259.2222 145.4477,-265.0413 135.6765,-285 133.6471,-289.1454 131.0283,-293.3257 128.3327,-297.1719"/>
<polygon fill="#FFFFFF" stroke="#FFFFFF" points="122.145,-305.3666 124.5798,-294.6744 125.158,-301.3763 128.171,-297.3861 128.171,-297.3861 128.171,-297.3861 125.158,-301.3763 131.7622,-300.0978 122.145,-305.3666 122.145,-305.3666"/>
</g>
</g>
</svg>
