<?xml version="1.0" encoding="UTF-8" standalone="no"?>
<svg width="45.75mm" height="38.15mm"
 viewBox="0 0 915 763"
 xmlns="http://www.w3.org/2000/svg" xmlns:xlink="http://www.w3.org/1999/xlink"  version="1.2" baseProfile="tiny">
<title>Proteus Design Suite SVG export</title>
<desc>Created by Proteus Design Suite</desc>
<defs>
</defs>
<g fill="none" stroke="white" stroke-width="1" fill-rule="evenodd" stroke-linecap="square" stroke-linejoin="bevel" >

<g fill="none" stroke="#FFFFFF" stroke-opacity="1" stroke-width="10" stroke-linecap="round" stroke-linejoin="bevel" transform="matrix(1,0,0,1,0,0)"
font-family="MS Shell Dlg 2" font-size="58.2083" font-weight="400" font-style="normal" 
>
<path vector-effect="none" fill-rule="evenodd" d="M-3658,-1981 L3962,-1981 L3962,3099 L-3658,3099 L-3658,-1981"/>
</g>

<g fill="none" stroke="#FFFFFF" stroke-opacity="1" stroke-width="10" stroke-linecap="round" stroke-linejoin="bevel" transform="matrix(1,0,0,1,0,0)"
font-family="MS Shell Dlg 2" font-size="58.2083" font-weight="400" font-style="normal" 
>
<path vector-effect="none" fill-rule="evenodd" d="M-3556,-1880 L3861,-1880 L3861,2997 L-3556,2997 L-3556,-1880"/>
</g>

<g fill="none" stroke="#FFFFFF" stroke-opacity="1" stroke-width="8" stroke-linecap="round" stroke-linejoin="bevel" transform="matrix(1,0,0,1,0,0)"
font-family="MS Shell Dlg 2" font-size="58.2083" font-weight="400" font-style="normal" 
>
<path vector-effect="none" fill-rule="evenodd" d="M559,406 L203,406"/>
</g>

<g fill="none" stroke="#FFFFFF" stroke-opacity="1" stroke-width="16" stroke-linecap="round" stroke-linejoin="bevel" transform="matrix(1,0,0,1,0,0)"
font-family="MS Shell Dlg 2" font-size="58.2083" font-weight="400" font-style="normal" 
>
<path vector-effect="none" fill-rule="evenodd" d="M51,305 L203,305 L203,508 L51,508 L51,305"/>
</g>

<g fill="none" stroke="#FFFFFF" stroke-opacity="1" stroke-width="1" stroke-linecap="square" stroke-linejoin="bevel" transform="matrix(1,0,0,1,0,0)"
font-family="Arial" font-size="41.656" font-weight="400" font-style="normal" 
>
<text fill="#FFFFFF" fill-opacity="1" stroke="none" xml:space="preserve" x="42" y="556" font-family="Arial" font-size="41.656" font-weight="400" font-style="normal" 
 >PIN</text>
</g>

<g fill="none" stroke="#FFFFFF" stroke-opacity="1" stroke-width="16" stroke-linecap="round" stroke-linejoin="bevel" transform="matrix(1,0,0,1,0,0)"
font-family="MS Shell Dlg 2" font-size="58.2083" font-weight="400" font-style="normal" 
>
</g>

<g fill="none" stroke="#FFFFFF" stroke-opacity="1" stroke-width="8" stroke-linecap="round" stroke-linejoin="bevel" transform="matrix(1,0,0,1,0,0)"
font-family="MS Shell Dlg 2" font-size="58.2083" font-weight="400" font-style="normal" 
>
<path vector-effect="none" fill-rule="evenodd" d="M660,386 L660,427 L609,406 L660,386"/>
</g>

<g fill="none" stroke="#FFFFFF" stroke-opacity="1" stroke-width="8" stroke-linecap="round" stroke-linejoin="bevel" transform="matrix(1,0,0,1,0,0)"
font-family="MS Shell Dlg 2" font-size="58.2083" font-weight="400" font-style="normal" 
>
<polyline fill="none" vector-effect="none" points="609,406 559,406 " />
</g>

<g fill="none" stroke="#FFFFFF" stroke-opacity="1" stroke-width="1" stroke-linecap="square" stroke-linejoin="bevel" transform="matrix(1,0,0,1,0,0)"
font-family="Arial" font-size="41.656" font-weight="400" font-style="normal" 
>
<text fill="#FFFFFF" fill-opacity="1" stroke="none" xml:space="preserve" x="686" y="422" font-family="Arial" font-size="41.656" font-weight="400" font-style="normal" 
 >Input Signal</text>
</g>

<g fill="none" stroke="#FFFFFF" stroke-opacity="1" stroke-width="8" stroke-linecap="round" stroke-linejoin="bevel" transform="matrix(1,0,0,1,0,0)"
font-family="MS Shell Dlg 2" font-size="58.2083" font-weight="400" font-style="normal" 
>
</g>

<g fill="#FFFFFF" fill-opacity="1" stroke="#FFFFFF" stroke-opacity="1" stroke-width="8" stroke-linecap="round" stroke-linejoin="bevel" transform="matrix(1,0,0,1,0,0)"
font-family="MS Shell Dlg 2" font-size="58.2083" font-weight="400" font-style="normal" 
>
<path vector-effect="none" fill-rule="evenodd" d="M213,406 C213,411.523 208.523,416 203,416 C197.477,416 193,411.523 193,406 C193,400.477 197.477,396 203,396 C208.523,396 213,400.477 213,406 "/>
</g>
</g>
</svg>
