<?xml version="1.0" encoding="UTF-8" standalone="no"?>
<svg width="45.75mm" height="38.15mm"
 viewBox="0 0 915 763"
 xmlns="http://www.w3.org/2000/svg" xmlns:xlink="http://www.w3.org/1999/xlink"  version="1.2" baseProfile="tiny">
<title>Proteus Design Suite SVG export</title>
<desc>Created by Proteus Design Suite</desc>
<defs>
</defs>
<g fill="none" stroke="white" stroke-width="1" fill-rule="evenodd" stroke-linecap="square" stroke-linejoin="bevel" >

<g fill="none" stroke="#FFFFFF" stroke-opacity="1" stroke-width="10" stroke-linecap="round" stroke-linejoin="bevel" transform="matrix(1,0,0,1,0,0)"
font-family="MS Shell Dlg 2" font-size="58.2083" font-weight="400" font-style="normal" 
>
<path vector-effect="none" fill-rule="evenodd" d="M-3658,-1981 L3962,-1981 L3962,3099 L-3658,3099 L-3658,-1981"/>
</g>

<g fill="none" stroke="#FFFFFF" stroke-opacity="1" stroke-width="10" stroke-linecap="round" stroke-linejoin="bevel" transform="matrix(1,0,0,1,0,0)"
font-family="MS Shell Dlg 2" font-size="58.2083" font-weight="400" font-style="normal" 
>
<path vector-effect="none" fill-rule="evenodd" d="M-3556,-1880 L3861,-1880 L3861,2997 L-3556,2997 L-3556,-1880"/>
</g>

<g fill="none" stroke="#FFFFFF" stroke-opacity="1" stroke-width="8" stroke-linecap="round" stroke-linejoin="bevel" transform="matrix(1,0,0,1,0,0)"
font-family="MS Shell Dlg 2" font-size="58.2083" font-weight="400" font-style="normal" 
>
<path vector-effect="none" fill-rule="evenodd" d="M203,152 L406,152"/>
</g>

<g fill="none" stroke="#FFFFFF" stroke-opacity="1" stroke-width="8" stroke-linecap="round" stroke-linejoin="bevel" transform="matrix(1,0,0,1,0,0)"
font-family="MS Shell Dlg 2" font-size="58.2083" font-weight="400" font-style="normal" 
>
<path vector-effect="none" fill-rule="evenodd" d="M406,152 L559,152"/>
</g>

<g fill="none" stroke="#FFFFFF" stroke-opacity="1" stroke-width="8" stroke-linecap="round" stroke-linejoin="bevel" transform="matrix(1,0,0,1,0,0)"
font-family="MS Shell Dlg 2" font-size="58.2083" font-weight="400" font-style="normal" 
>
<path vector-effect="none" fill-rule="evenodd" d="M406,305 L406,152"/>
</g>

<g fill="none" stroke="#FFFFFF" stroke-opacity="1" stroke-width="8" stroke-linecap="round" stroke-linejoin="bevel" transform="matrix(1,0,0,1,0,0)"
font-family="MS Shell Dlg 2" font-size="58.2083" font-weight="400" font-style="normal" 
>
<path vector-effect="none" fill-rule="evenodd" d="M406,610 L406,559"/>
</g>

<g fill="none" stroke="#FFFFFF" stroke-opacity="1" stroke-width="16" stroke-linecap="round" stroke-linejoin="bevel" transform="matrix(1,0,0,1,0,0)"
font-family="MS Shell Dlg 2" font-size="58.2083" font-weight="400" font-style="normal" 
>
<path vector-effect="none" fill-rule="evenodd" d="M51,51 L203,51 L203,254 L51,254 L51,51"/>
</g>

<g fill="none" stroke="#FFFFFF" stroke-opacity="1" stroke-width="1" stroke-linecap="square" stroke-linejoin="bevel" transform="matrix(1,0,0,1,0,0)"
font-family="Arial" font-size="41.656" font-weight="400" font-style="normal" 
>
<text fill="#FFFFFF" fill-opacity="1" stroke="none" xml:space="preserve" x="42" y="302" font-family="Arial" font-size="41.656" font-weight="400" font-style="normal" 
 >PIN</text>
</g>

<g fill="none" stroke="#FFFFFF" stroke-opacity="1" stroke-width="16" stroke-linecap="round" stroke-linejoin="bevel" transform="matrix(1,0,0,1,0,0)"
font-family="MS Shell Dlg 2" font-size="58.2083" font-weight="400" font-style="normal" 
>
</g>

<g fill="none" stroke="#FFFFFF" stroke-opacity="1" stroke-width="8" stroke-linecap="round" stroke-linejoin="bevel" transform="matrix(1,0,0,1,0,0)"
font-family="MS Shell Dlg 2" font-size="58.2083" font-weight="400" font-style="normal" 
>
<path vector-effect="none" fill-rule="evenodd" d="M660,132 L660,173 L609,152 L660,132"/>
</g>

<g fill="none" stroke="#FFFFFF" stroke-opacity="1" stroke-width="8" stroke-linecap="round" stroke-linejoin="bevel" transform="matrix(1,0,0,1,0,0)"
font-family="MS Shell Dlg 2" font-size="58.2083" font-weight="400" font-style="normal" 
>
<polyline fill="none" vector-effect="none" points="609,152 559,152 " />
</g>

<g fill="none" stroke="#FFFFFF" stroke-opacity="1" stroke-width="1" stroke-linecap="square" stroke-linejoin="bevel" transform="matrix(1,0,0,1,0,0)"
font-family="Arial" font-size="41.656" font-weight="400" font-style="normal" 
>
<text fill="#FFFFFF" fill-opacity="1" stroke="none" xml:space="preserve" x="686" y="168" font-family="Arial" font-size="41.656" font-weight="400" font-style="normal" 
 >Input Signal</text>
</g>

<g fill="none" stroke="#FFFFFF" stroke-opacity="1" stroke-width="8" stroke-linecap="round" stroke-linejoin="bevel" transform="matrix(1,0,0,1,0,0)"
font-family="MS Shell Dlg 2" font-size="58.2083" font-weight="400" font-style="normal" 
>
</g>

<g fill="#FFFFFF" fill-opacity="1" stroke="#FFFFFF" stroke-opacity="1" stroke-width="8" stroke-linecap="round" stroke-linejoin="bevel" transform="matrix(1,0,0,1,0,0)"
font-family="MS Shell Dlg 2" font-size="58.2083" font-weight="400" font-style="normal" 
>
<path vector-effect="none" fill-rule="evenodd" d="M213,152 C213,157.523 208.523,162 203,162 C197.477,162 193,157.523 193,152 C193,146.477 197.477,142 203,142 C208.523,142 213,146.477 213,152 "/>
</g>

<g fill="none" stroke="#FFFFFF" stroke-opacity="1" stroke-width="8" stroke-linecap="round" stroke-linejoin="bevel" transform="matrix(1,0,0,1,0,0)"
font-family="MS Shell Dlg 2" font-size="58.2083" font-weight="400" font-style="normal" 
>
<path vector-effect="none" fill-rule="evenodd" d="M386,356 L427,356 L427,508 L386,508 L386,356"/>
</g>

<g fill="none" stroke="#FFFFFF" stroke-opacity="1" stroke-width="8" stroke-linecap="round" stroke-linejoin="bevel" transform="matrix(1,0,0,1,0,0)"
font-family="MS Shell Dlg 2" font-size="58.2083" font-weight="400" font-style="normal" 
>
<polyline fill="none" vector-effect="none" points="406,305 406,356 " />
</g>

<g fill="none" stroke="#FFFFFF" stroke-opacity="1" stroke-width="8" stroke-linecap="round" stroke-linejoin="bevel" transform="matrix(1,0,0,1,0,0)"
font-family="MS Shell Dlg 2" font-size="58.2083" font-weight="400" font-style="normal" 
>
<polyline fill="none" vector-effect="none" points="406,559 406,508 " />
</g>

<g fill="none" stroke="#FFFFFF" stroke-opacity="1" stroke-width="1" stroke-linecap="square" stroke-linejoin="bevel" transform="matrix(1,0,0,1,0,0)"
font-family="Arial" font-size="62.484" font-weight="400" font-style="normal" 
>
<text fill="#FFFFFF" fill-opacity="1" stroke="none" xml:space="preserve" x="456" y="410" font-family="Arial" font-size="62.484" font-weight="400" font-style="normal" 
 >PULL-DOWN</text>
</g>

<g fill="none" stroke="#FFFFFF" stroke-opacity="1" stroke-width="8" stroke-linecap="round" stroke-linejoin="bevel" transform="matrix(1,0,0,1,0,0)"
font-family="MS Shell Dlg 2" font-size="58.2083" font-weight="400" font-style="normal" 
>
</g>

<g fill="#FFFFFF" fill-opacity="1" stroke="#FFFFFF" stroke-opacity="1" stroke-width="8" stroke-linecap="round" stroke-linejoin="bevel" transform="matrix(1,0,0,1,0,0)"
font-family="MS Shell Dlg 2" font-size="58.2083" font-weight="400" font-style="normal" 
>
<path vector-effect="none" fill-rule="evenodd" d="M416,152 C416,157.523 411.523,162 406,162 C400.477,162 396,157.523 396,152 C396,146.477 400.477,142 406,142 C411.523,142 416,146.477 416,152 "/>
</g>

<g fill="none" stroke="#FFFFFF" stroke-opacity="1" stroke-width="8" stroke-linecap="round" stroke-linejoin="bevel" transform="matrix(1,0,0,1,0,0)"
font-family="MS Shell Dlg 2" font-size="58.2083" font-weight="400" font-style="normal" 
>
<polyline fill="none" vector-effect="none" points="406,610 406,660 " />
</g>

<g fill="none" stroke="#FFFFFF" stroke-opacity="1" stroke-width="8" stroke-linecap="round" stroke-linejoin="bevel" transform="matrix(1,0,0,1,0,0)"
font-family="MS Shell Dlg 2" font-size="58.2083" font-weight="400" font-style="normal" 
>
<polyline fill="none" vector-effect="none" points="355,660 457,660 " />
</g>

<g fill="none" stroke="#FFFFFF" stroke-opacity="1" stroke-width="8" stroke-linecap="round" stroke-linejoin="bevel" transform="matrix(1,0,0,1,0,0)"
font-family="MS Shell Dlg 2" font-size="58.2083" font-weight="400" font-style="normal" 
>
<polyline fill="none" vector-effect="none" points="381,686 432,686 " />
</g>

<g fill="none" stroke="#FFFFFF" stroke-opacity="1" stroke-width="8" stroke-linecap="round" stroke-linejoin="bevel" transform="matrix(1,0,0,1,0,0)"
font-family="MS Shell Dlg 2" font-size="58.2083" font-weight="400" font-style="normal" 
>
<polyline fill="none" vector-effect="none" points="401,711 411,711 " />
</g>
</g>
</svg>
