<?xml version="1.0" encoding="UTF-8" standalone="no"?>
<!DOCTYPE svg PUBLIC "-//W3C//DTD SVG 1.1//EN"
 "http://www.w3.org/Graphics/SVG/1.1/DTD/svg11.dtd">
<!-- Generated by graphviz version 2.40.1 (20161225.0304)
 -->
<!-- Title: G Pages: 1 -->
<svg width="618pt" height="1009pt"
 viewBox="0.00 0.00 617.52 1009.00" xmlns="http://www.w3.org/2000/svg" xmlns:xlink="http://www.w3.org/1999/xlink">
<g id="graph0" class="graph" transform="scale(1 1) rotate(0) translate(4 1005)">
<title>G</title>
<polygon fill="#ffffff" stroke="transparent" points="-4,4 -4,-1005 613.521,-1005 613.521,4 -4,4"/>
<!-- A0 -->
<g id="node1" class="node">
<title>A0</title>
<ellipse fill="none" stroke="#000000" cx="426.956" cy="-990" rx="11" ry="11"/>
</g>
<!-- A1 -->
<g id="node2" class="node">
<title>A1</title>
<path fill="none" stroke="#000000" d="M303.0241,-931C303.0241,-931 238.8879,-931 238.8879,-931 232.8879,-931 226.8879,-925 226.8879,-919 226.8879,-919 226.8879,-907 226.8879,-907 226.8879,-901 232.8879,-895 238.8879,-895 238.8879,-895 303.0241,-895 303.0241,-895 309.0241,-895 315.0241,-901 315.0241,-907 315.0241,-907 315.0241,-919 315.0241,-919 315.0241,-925 309.0241,-931 303.0241,-931"/>
<text text-anchor="middle" x="270.956" y="-910" font-family="Helvetica,sans-Serif" font-size="10.00" fill="#000000">Wait for Send</text>
</g>
<!-- A0&#45;&gt;A1 -->
<g id="edge1" class="edge">
<title>A0&#45;&gt;A1</title>
<path fill="none" stroke="#000000" d="M416.7204,-984.9478C396.7464,-975.0889 351.4823,-952.7469 316.6541,-935.5561"/>
<polygon fill="#000000" stroke="#000000" points="307.5927,-931.0835 318.5516,-931.4744 312.0762,-933.2966 316.5598,-935.5096 316.5598,-935.5096 316.5598,-935.5096 312.0762,-933.2966 314.5681,-939.5448 307.5927,-931.0835 307.5927,-931.0835"/>
<text text-anchor="middle" x="403.7945" y="-952" font-family="Helvetica,sans-Serif" font-size="10.00" fill="#000000">&#45;Available Bytes</text>
</g>
<!-- A2 -->
<g id="node3" class="node">
<title>A2</title>
<path fill="none" stroke="#000000" d="M122.6974,-847C122.6974,-847 71.2146,-847 71.2146,-847 65.2146,-847 59.2146,-841 59.2146,-835 59.2146,-835 59.2146,-823 59.2146,-823 59.2146,-817 65.2146,-811 71.2146,-811 71.2146,-811 122.6974,-811 122.6974,-811 128.6974,-811 134.6974,-817 134.6974,-823 134.6974,-823 134.6974,-835 134.6974,-835 134.6974,-841 128.6974,-847 122.6974,-847"/>
<text text-anchor="middle" x="96.956" y="-826" font-family="Helvetica,sans-Serif" font-size="10.00" fill="#000000">Send Data</text>
</g>
<!-- A1&#45;&gt;A2 -->
<g id="edge2" class="edge">
<title>A1&#45;&gt;A2</title>
<path fill="none" stroke="#000000" d="M226.7398,-905.914C201.7007,-900.5653 170.504,-891.5785 145.581,-877 135.7515,-871.2503 126.4562,-863.0629 118.6768,-855.0746"/>
<polygon fill="#000000" stroke="#000000" points="111.439,-847.2503 121.533,-851.5354 114.8343,-850.9208 118.2296,-854.5912 118.2296,-854.5912 118.2296,-854.5912 114.8343,-850.9208 114.9263,-857.647 111.439,-847.2503 111.439,-847.2503"/>
<text text-anchor="middle" x="206.6435" y="-868" font-family="Helvetica,sans-Serif" font-size="10.00" fill="#000000">&#45;Yes, Ex: CMGS wait for &#39;&gt;&#39;</text>
</g>
<!-- A3 -->
<g id="node4" class="node">
<title>A3</title>
<path fill="none" stroke="#000000" d="M295.5282,-847C295.5282,-847 246.3838,-847 246.3838,-847 240.3838,-847 234.3838,-841 234.3838,-835 234.3838,-835 234.3838,-823 234.3838,-823 234.3838,-817 240.3838,-811 246.3838,-811 246.3838,-811 295.5282,-811 295.5282,-811 301.5282,-811 307.5282,-817 307.5282,-823 307.5282,-823 307.5282,-835 307.5282,-835 307.5282,-841 301.5282,-847 295.5282,-847"/>
<text text-anchor="middle" x="270.956" y="-826" font-family="Helvetica,sans-Serif" font-size="10.00" fill="#000000">Read Line</text>
</g>
<!-- A1&#45;&gt;A3 -->
<g id="edge3" class="edge">
<title>A1&#45;&gt;A3</title>
<path fill="none" stroke="#000000" d="M270.956,-894.7733C270.956,-883.8758 270.956,-869.7946 270.956,-857.4587"/>
<polygon fill="#000000" stroke="#000000" points="270.956,-847.1912 275.4561,-857.1911 270.956,-852.1912 270.9561,-857.1912 270.9561,-857.1912 270.9561,-857.1912 270.956,-852.1912 266.4561,-857.1912 270.956,-847.1912 270.956,-847.1912"/>
<text text-anchor="middle" x="279.0095" y="-868" font-family="Helvetica,sans-Serif" font-size="10.00" fill="#000000">&#45;No</text>
</g>
<!-- A9 -->
<g id="node10" class="node">
<title>A9</title>
<path fill="none" stroke="#000000" d="M59.8681,-709C59.8681,-709 12.0439,-709 12.0439,-709 6.0439,-709 .0439,-703 .0439,-697 .0439,-697 .0439,-685 .0439,-685 .0439,-679 6.0439,-673 12.0439,-673 12.0439,-673 59.8681,-673 59.8681,-673 65.8681,-673 71.8681,-679 71.8681,-685 71.8681,-685 71.8681,-697 71.8681,-697 71.8681,-703 65.8681,-709 59.8681,-709"/>
<text text-anchor="middle" x="35.956" y="-688" font-family="Helvetica,sans-Serif" font-size="10.00" fill="#000000">Send End</text>
</g>
<!-- A2&#45;&gt;A9 -->
<g id="edge10" class="edge">
<title>A2&#45;&gt;A9</title>
<path fill="none" stroke="#000000" d="M88.9813,-810.9589C78.5694,-787.404 60.2445,-745.9478 48.1009,-718.4753"/>
<polygon fill="#000000" stroke="#000000" points="43.9326,-709.0455 52.0915,-716.3725 45.9541,-713.6187 47.9756,-718.1918 47.9756,-718.1918 47.9756,-718.1918 45.9541,-713.6187 43.8598,-720.0112 43.9326,-709.0455 43.9326,-709.0455"/>
<text text-anchor="middle" x="103.726" y="-784" font-family="Helvetica,sans-Serif" font-size="10.00" fill="#000000">&#45;Ex: Ctrl&#45;Z</text>
</g>
<!-- A4 -->
<g id="node5" class="node">
<title>A4</title>
<path fill="none" stroke="#000000" d="M300.5271,-763C300.5271,-763 241.3849,-763 241.3849,-763 235.3849,-763 229.3849,-757 229.3849,-751 229.3849,-751 229.3849,-739 229.3849,-739 229.3849,-733 235.3849,-727 241.3849,-727 241.3849,-727 300.5271,-727 300.5271,-727 306.5271,-727 312.5271,-733 312.5271,-739 312.5271,-739 312.5271,-751 312.5271,-751 312.5271,-757 306.5271,-763 300.5271,-763"/>
<text text-anchor="middle" x="270.956" y="-742" font-family="Helvetica,sans-Serif" font-size="10.00" fill="#000000">Empty Line?</text>
</g>
<!-- A3&#45;&gt;A4 -->
<g id="edge4" class="edge">
<title>A3&#45;&gt;A4</title>
<path fill="none" stroke="#000000" d="M270.956,-810.7733C270.956,-799.8758 270.956,-785.7946 270.956,-773.4587"/>
<polygon fill="#000000" stroke="#000000" points="270.956,-763.1912 275.4561,-773.1911 270.956,-768.1912 270.9561,-773.1912 270.9561,-773.1912 270.9561,-773.1912 270.956,-768.1912 266.4561,-773.1912 270.956,-763.1912 270.956,-763.1912"/>
</g>
<!-- A5 -->
<g id="node6" class="node">
<title>A5</title>
<ellipse fill="none" stroke="#000000" cx="241.956" cy="-15" rx="11" ry="11"/>
<ellipse fill="none" stroke="#000000" cx="241.956" cy="-15" rx="15" ry="15"/>
</g>
<!-- A4&#45;&gt;A5 -->
<g id="edge5" class="edge">
<title>A4&#45;&gt;A5</title>
<path fill="none" stroke="#000000" d="M229.2036,-739.2235C174.9158,-729.0926 86.956,-702.562 86.956,-637 86.956,-637 86.956,-637 86.956,-85 86.956,-56.7677 173.4478,-31.6538 217.2123,-20.7533"/>
<polygon fill="#000000" stroke="#000000" points="227.0939,-18.3531 218.4387,-25.0863 222.2352,-19.5333 217.3765,-20.7135 217.3765,-20.7135 217.3765,-20.7135 222.2352,-19.5333 216.3143,-16.3406 227.0939,-18.3531 227.0939,-18.3531"/>
<text text-anchor="middle" x="97.2345" y="-382" font-family="Helvetica,sans-Serif" font-size="10.00" fill="#000000">&#45;Yes</text>
</g>
<!-- A6 -->
<g id="node7" class="node">
<title>A6</title>
<path fill="none" stroke="#000000" d="M307.2937,-655C307.2937,-655 244.6183,-655 244.6183,-655 238.6183,-655 232.6183,-649 232.6183,-643 232.6183,-643 232.6183,-631 232.6183,-631 232.6183,-625 238.6183,-619 244.6183,-619 244.6183,-619 307.2937,-619 307.2937,-619 313.2937,-619 319.2937,-625 319.2937,-631 319.2937,-631 319.2937,-643 319.2937,-643 319.2937,-649 313.2937,-655 307.2937,-655"/>
<text text-anchor="middle" x="275.956" y="-634" font-family="Helvetica,sans-Serif" font-size="10.00" fill="#000000">Wait for Data</text>
</g>
<!-- A4&#45;&gt;A6 -->
<g id="edge6" class="edge">
<title>A4&#45;&gt;A6</title>
<path fill="none" stroke="#000000" d="M271.8042,-726.6793C272.5847,-709.821 273.7539,-684.5651 274.6529,-665.147"/>
<polygon fill="#000000" stroke="#000000" points="275.1203,-655.0502 279.153,-665.2476 274.8891,-660.0448 274.6578,-665.0395 274.6578,-665.0395 274.6578,-665.0395 274.8891,-660.0448 270.1626,-664.8313 275.1203,-655.0502 275.1203,-655.0502"/>
<text text-anchor="middle" x="283.0095" y="-688" font-family="Helvetica,sans-Serif" font-size="10.00" fill="#000000">&#45;No</text>
</g>
<!-- A5&#45;&gt;A0 -->
<g id="edge29" class="edge">
<title>A5&#45;&gt;A0</title>
<path fill="none" stroke="#000000" d="M257.1369,-16.2507C313.3563,-21.0642 509.3264,-39.5077 564.956,-67 575.3842,-72.1537 583.956,-73.3678 583.956,-85 583.956,-913 583.956,-913 583.956,-913 583.956,-943.0221 490.2433,-972.6156 447.621,-984.5227"/>
<polygon fill="#000000" stroke="#000000" points="437.7472,-987.2188 446.2087,-980.2435 442.5707,-985.9017 447.3941,-984.5846 447.3941,-984.5846 447.3941,-984.5846 442.5707,-985.9017 448.5795,-988.9257 437.7472,-987.2188 437.7472,-987.2188"/>
<text text-anchor="middle" x="596.7385" y="-508" font-family="Helvetica,sans-Serif" font-size="10.00" fill="#000000">&#45;Loop</text>
</g>
<!-- A7 -->
<g id="node8" class="node">
<title>A7</title>
<path fill="none" stroke="#000000" d="M309.2423,-571C309.2423,-571 242.6697,-571 242.6697,-571 236.6697,-571 230.6697,-565 230.6697,-559 230.6697,-559 230.6697,-547 230.6697,-547 230.6697,-541 236.6697,-535 242.6697,-535 242.6697,-535 309.2423,-535 309.2423,-535 315.2423,-535 321.2423,-541 321.2423,-547 321.2423,-547 321.2423,-559 321.2423,-559 321.2423,-565 315.2423,-571 309.2423,-571"/>
<text text-anchor="middle" x="275.956" y="-550" font-family="Helvetica,sans-Serif" font-size="10.00" fill="#000000">Start with AT?</text>
</g>
<!-- A6&#45;&gt;A7 -->
<g id="edge7" class="edge">
<title>A6&#45;&gt;A7</title>
<path fill="none" stroke="#000000" d="M275.956,-618.7733C275.956,-607.8758 275.956,-593.7946 275.956,-581.4587"/>
<polygon fill="#000000" stroke="#000000" points="275.956,-571.1912 280.4561,-581.1911 275.956,-576.1912 275.9561,-581.1912 275.9561,-581.1912 275.9561,-581.1912 275.956,-576.1912 271.4561,-581.1912 275.956,-571.1912 275.956,-571.1912"/>
<text text-anchor="middle" x="284.0095" y="-592" font-family="Helvetica,sans-Serif" font-size="10.00" fill="#000000">&#45;No</text>
</g>
<!-- A18 -->
<g id="node19" class="node">
<title>A18</title>
<path fill="none" stroke="#000000" d="M544.4048,-103C544.4048,-103 435.5072,-103 435.5072,-103 429.5072,-103 423.5072,-97 423.5072,-91 423.5072,-91 423.5072,-79 423.5072,-79 423.5072,-73 429.5072,-67 435.5072,-67 435.5072,-67 544.4048,-67 544.4048,-67 550.4048,-67 556.4048,-73 556.4048,-79 556.4048,-79 556.4048,-91 556.4048,-91 556.4048,-97 550.4048,-103 544.4048,-103"/>
<text text-anchor="middle" x="489.956" y="-82" font-family="Helvetica,sans-Serif" font-size="10.00" fill="#000000">Notification With Param</text>
</g>
<!-- A6&#45;&gt;A18 -->
<g id="edge26" class="edge">
<title>A6&#45;&gt;A18</title>
<path fill="none" stroke="#000000" d="M319.3203,-630.9679C388.7057,-620.085 516.956,-594.3735 516.956,-553 516.956,-553 516.956,-553 516.956,-193 516.956,-164.9697 508.2902,-134.0363 500.7775,-112.4855"/>
<polygon fill="#000000" stroke="#000000" points="497.3339,-103.0013 504.9766,-110.8651 499.0403,-107.7011 500.7468,-112.4009 500.7468,-112.4009 500.7468,-112.4009 499.0403,-107.7011 496.517,-113.9367 497.3339,-103.0013 497.3339,-103.0013"/>
<text text-anchor="middle" x="527.2345" y="-382" font-family="Helvetica,sans-Serif" font-size="10.00" fill="#000000">&#45;Yes</text>
</g>
<!-- A7&#45;&gt;A5 -->
<g id="edge8" class="edge">
<title>A7&#45;&gt;A5</title>
<path fill="none" stroke="#000000" d="M257.0679,-534.752C244.9181,-522.2133 229.4895,-504.6921 218.956,-487 160.9905,-389.6413 132.956,-360.3081 132.956,-247 132.956,-247 132.956,-247 132.956,-85 132.956,-45.3968 184.5304,-27.1558 216.7267,-19.627"/>
<polygon fill="#000000" stroke="#000000" points="226.8,-17.469 217.9645,-23.964 221.9109,-18.5164 217.0219,-19.5638 217.0219,-19.5638 217.0219,-19.5638 221.9109,-18.5164 216.0792,-15.1637 226.8,-17.469 226.8,-17.469"/>
<text text-anchor="middle" x="149.2345" y="-298" font-family="Helvetica,sans-Serif" font-size="10.00" fill="#000000">&#45;Yes</text>
</g>
<!-- A8 -->
<g id="node9" class="node">
<title>A8</title>
<path fill="none" stroke="#000000" d="M315.5711,-487C315.5711,-487 240.3409,-487 240.3409,-487 234.3409,-487 228.3409,-481 228.3409,-475 228.3409,-475 228.3409,-463 228.3409,-463 228.3409,-457 234.3409,-451 240.3409,-451 240.3409,-451 315.5711,-451 315.5711,-451 321.5711,-451 327.5711,-457 327.5711,-463 327.5711,-463 327.5711,-475 327.5711,-475 327.5711,-481 321.5711,-487 315.5711,-487"/>
<text text-anchor="middle" x="277.956" y="-466" font-family="Helvetica,sans-Serif" font-size="10.00" fill="#000000">Wait for Result?</text>
</g>
<!-- A7&#45;&gt;A8 -->
<g id="edge9" class="edge">
<title>A7&#45;&gt;A8</title>
<path fill="none" stroke="#000000" d="M276.39,-534.7733C276.6494,-523.8758 276.9847,-509.7946 277.2784,-497.4587"/>
<polygon fill="#000000" stroke="#000000" points="277.5229,-487.1912 281.7835,-497.2955 277.4038,-492.1898 277.2848,-497.1883 277.2848,-497.1883 277.2848,-497.1883 277.4038,-492.1898 272.786,-497.0812 277.5229,-487.1912 277.5229,-487.1912"/>
<text text-anchor="middle" x="286.0095" y="-508" font-family="Helvetica,sans-Serif" font-size="10.00" fill="#000000">&#45;No</text>
</g>
<!-- A10 -->
<g id="node11" class="node">
<title>A10</title>
<path fill="none" stroke="#000000" d="M313.6863,-403C313.6863,-403 242.2257,-403 242.2257,-403 236.2257,-403 230.2257,-397 230.2257,-391 230.2257,-391 230.2257,-379 230.2257,-379 230.2257,-373 236.2257,-367 242.2257,-367 242.2257,-367 313.6863,-367 313.6863,-367 319.6863,-367 325.6863,-373 325.6863,-379 325.6863,-379 325.6863,-391 325.6863,-391 325.6863,-397 319.6863,-403 313.6863,-403"/>
<text text-anchor="middle" x="277.956" y="-382" font-family="Helvetica,sans-Serif" font-size="10.00" fill="#000000">Process Result</text>
</g>
<!-- A8&#45;&gt;A10 -->
<g id="edge12" class="edge">
<title>A8&#45;&gt;A10</title>
<path fill="none" stroke="#000000" d="M277.956,-450.7733C277.956,-439.8758 277.956,-425.7946 277.956,-413.4587"/>
<polygon fill="#000000" stroke="#000000" points="277.956,-403.1912 282.4561,-413.1911 277.956,-408.1912 277.9561,-413.1912 277.9561,-413.1912 277.9561,-413.1912 277.956,-408.1912 273.4561,-413.1912 277.956,-403.1912 277.956,-403.1912"/>
<text text-anchor="middle" x="288.2345" y="-424" font-family="Helvetica,sans-Serif" font-size="10.00" fill="#000000">&#45;Yes</text>
</g>
<!-- A11 -->
<g id="node12" class="node">
<title>A11</title>
<path fill="none" stroke="#000000" d="M477.0091,-211C477.0091,-211 412.9029,-211 412.9029,-211 406.9029,-211 400.9029,-205 400.9029,-199 400.9029,-199 400.9029,-187 400.9029,-187 400.9029,-181 406.9029,-175 412.9029,-175 412.9029,-175 477.0091,-175 477.0091,-175 483.0091,-175 489.0091,-181 489.0091,-187 489.0091,-187 489.0091,-199 489.0091,-199 489.0091,-205 483.0091,-211 477.0091,-211"/>
<text text-anchor="middle" x="444.956" y="-190" font-family="Helvetica,sans-Serif" font-size="10.00" fill="#000000">Process URC</text>
</g>
<!-- A8&#45;&gt;A11 -->
<g id="edge13" class="edge">
<title>A8&#45;&gt;A11</title>
<path fill="none" stroke="#000000" d="M313.369,-450.8774C355.4539,-427.1005 423.5455,-381.002 451.956,-319 466.2975,-287.7018 460.3949,-247.3519 453.6975,-220.8555"/>
<polygon fill="#000000" stroke="#000000" points="451.0339,-211.0898 458.0068,-219.5532 452.3496,-215.9135 453.6654,-220.7373 453.6654,-220.7373 453.6654,-220.7373 452.3496,-215.9135 449.3239,-221.9215 451.0339,-211.0898 451.0339,-211.0898"/>
<text text-anchor="middle" x="450.0095" y="-340" font-family="Helvetica,sans-Serif" font-size="10.00" fill="#000000">&#45;No</text>
</g>
<!-- A9&#45;&gt;A5 -->
<g id="edge11" class="edge">
<title>A9&#45;&gt;A5</title>
<path fill="none" stroke="#000000" d="M36.5561,-672.955C37.1452,-653.662 37.956,-622.1726 37.956,-595 37.956,-595 37.956,-595 37.956,-85 37.956,-62.3639 53.1236,-58.912 72.956,-48 97.4199,-34.5397 176.1699,-23.1519 216.9529,-17.9792"/>
<polygon fill="#000000" stroke="#000000" points="226.9108,-16.7443 217.5406,-22.4409 221.9488,-17.3597 216.9868,-17.9751 216.9868,-17.9751 216.9868,-17.9751 221.9488,-17.3597 216.433,-13.5093 226.9108,-16.7443 226.9108,-16.7443"/>
</g>
<!-- A12 -->
<g id="node13" class="node">
<title>A12</title>
<path fill="none" stroke="#000000" d="M190.956,-265C190.956,-265 160.956,-265 160.956,-265 154.956,-265 148.956,-259 148.956,-253 148.956,-253 148.956,-241 148.956,-241 148.956,-235 154.956,-229 160.956,-229 160.956,-229 190.956,-229 190.956,-229 196.956,-229 202.956,-235 202.956,-241 202.956,-241 202.956,-253 202.956,-253 202.956,-259 196.956,-265 190.956,-265"/>
<text text-anchor="middle" x="175.956" y="-244" font-family="Helvetica,sans-Serif" font-size="10.00" fill="#000000">OK</text>
</g>
<!-- A10&#45;&gt;A12 -->
<g id="edge14" class="edge">
<title>A10&#45;&gt;A12</title>
<path fill="none" stroke="#000000" d="M230.2156,-368.1086C221.169,-363.115 212.5018,-356.8253 205.956,-349 188.5521,-328.1942 181.2436,-297.6642 178.1752,-275.43"/>
<polygon fill="#000000" stroke="#000000" points="176.9838,-265.2603 182.6169,-274.6688 177.5656,-270.2264 178.1474,-275.1924 178.1474,-275.1924 178.1474,-275.1924 177.5656,-270.2264 173.678,-275.7161 176.9838,-265.2603 176.9838,-265.2603"/>
</g>
<!-- A13 -->
<g id="node14" class="node">
<title>A13</title>
<path fill="none" stroke="#000000" d="M238.0611,-157C238.0611,-157 197.8509,-157 197.8509,-157 191.8509,-157 185.8509,-151 185.8509,-145 185.8509,-145 185.8509,-133 185.8509,-133 185.8509,-127 191.8509,-121 197.8509,-121 197.8509,-121 238.0611,-121 238.0611,-121 244.0611,-121 250.0611,-127 250.0611,-133 250.0611,-133 250.0611,-145 250.0611,-145 250.0611,-151 244.0611,-157 238.0611,-157"/>
<text text-anchor="middle" x="217.956" y="-136" font-family="Helvetica,sans-Serif" font-size="10.00" fill="#000000">ERROR</text>
</g>
<!-- A10&#45;&gt;A13 -->
<g id="edge16" class="edge">
<title>A10&#45;&gt;A13</title>
<path fill="none" stroke="#000000" d="M269.2749,-366.7638C258.6673,-343.6421 241.0168,-302.2909 231.956,-265 223.9532,-232.0635 220.5125,-193.1572 219.0411,-167.3824"/>
<polygon fill="#000000" stroke="#000000" points="218.5236,-157.1958 223.5253,-166.9545 218.7773,-162.1893 219.0311,-167.1829 219.0311,-167.1829 219.0311,-167.1829 218.7773,-162.1893 214.5369,-167.4113 218.5236,-157.1958 218.5236,-157.1958"/>
</g>
<!-- A14 -->
<g id="node15" class="node">
<title>A14</title>
<path fill="none" stroke="#000000" d="M310.5571,-265C310.5571,-265 245.3549,-265 245.3549,-265 239.3549,-265 233.3549,-259 233.3549,-253 233.3549,-253 233.3549,-241 233.3549,-241 233.3549,-235 239.3549,-229 245.3549,-229 245.3549,-229 310.5571,-229 310.5571,-229 316.5571,-229 322.5571,-235 322.5571,-241 322.5571,-241 322.5571,-253 322.5571,-253 322.5571,-259 316.5571,-265 310.5571,-265"/>
<text text-anchor="middle" x="277.956" y="-244" font-family="Helvetica,sans-Serif" font-size="10.00" fill="#000000">CME ERROR</text>
</g>
<!-- A10&#45;&gt;A14 -->
<g id="edge18" class="edge">
<title>A10&#45;&gt;A14</title>
<path fill="none" stroke="#000000" d="M277.956,-366.9589C277.956,-343.6106 277.956,-302.6738 277.956,-275.2014"/>
<polygon fill="#000000" stroke="#000000" points="277.956,-265.0455 282.4561,-275.0455 277.956,-270.0455 277.9561,-275.0455 277.9561,-275.0455 277.9561,-275.0455 277.956,-270.0455 273.4561,-275.0456 277.956,-265.0455 277.956,-265.0455"/>
</g>
<!-- A15 -->
<g id="node16" class="node">
<title>A15</title>
<path fill="none" stroke="#000000" d="M370.5571,-211C370.5571,-211 305.3549,-211 305.3549,-211 299.3549,-211 293.3549,-205 293.3549,-199 293.3549,-199 293.3549,-187 293.3549,-187 293.3549,-181 299.3549,-175 305.3549,-175 305.3549,-175 370.5571,-175 370.5571,-175 376.5571,-175 382.5571,-181 382.5571,-187 382.5571,-187 382.5571,-199 382.5571,-199 382.5571,-205 376.5571,-211 370.5571,-211"/>
<text text-anchor="middle" x="337.956" y="-190" font-family="Helvetica,sans-Serif" font-size="10.00" fill="#000000">CMS ERROR</text>
</g>
<!-- A10&#45;&gt;A15 -->
<g id="edge20" class="edge">
<title>A10&#45;&gt;A15</title>
<path fill="none" stroke="#000000" d="M285.1026,-366.6954C287.3084,-361.0265 289.7398,-354.7577 291.956,-349 306.3072,-311.716 312.9917,-303.4166 323.956,-265 328.0097,-250.7966 331.2641,-234.6829 333.6113,-221.306"/>
<polygon fill="#000000" stroke="#000000" points="335.2972,-211.2534 338.0812,-221.86 334.4702,-216.1845 333.6432,-221.1157 333.6432,-221.1157 333.6432,-221.1157 334.4702,-216.1845 329.2052,-220.3714 335.2972,-211.2534 335.2972,-211.2534"/>
</g>
<!-- A16 -->
<g id="node17" class="node">
<title>A16</title>
<path fill="none" stroke="#000000" d="M431.1863,-319C431.1863,-319 374.7257,-319 374.7257,-319 368.7257,-319 362.7257,-313 362.7257,-307 362.7257,-307 362.7257,-295 362.7257,-295 362.7257,-289 368.7257,-283 374.7257,-283 374.7257,-283 431.1863,-283 431.1863,-283 437.1863,-283 443.1863,-289 443.1863,-295 443.1863,-295 443.1863,-307 443.1863,-307 443.1863,-313 437.1863,-319 431.1863,-319"/>
<text text-anchor="middle" x="402.956" y="-298" font-family="Helvetica,sans-Serif" font-size="10.00" fill="#000000">Result Data</text>
</g>
<!-- A10&#45;&gt;A16 -->
<g id="edge22" class="edge">
<title>A10&#45;&gt;A16</title>
<path fill="none" stroke="#000000" d="M318.046,-366.9348C328.4187,-361.6579 339.3612,-355.5354 348.956,-349 358.7981,-342.2962 368.7669,-333.9632 377.4149,-326.1313"/>
<polygon fill="#000000" stroke="#000000" points="384.944,-319.1408 380.6775,-329.2426 381.2798,-322.5428 377.6157,-325.9449 377.6157,-325.9449 377.6157,-325.9449 381.2798,-322.5428 374.5538,-322.6471 384.944,-319.1408 384.944,-319.1408"/>
</g>
<!-- A17 -->
<g id="node18" class="node">
<title>A17</title>
<path fill="none" stroke="#000000" d="M393.9063,-103C393.9063,-103 340.0057,-103 340.0057,-103 334.0057,-103 328.0057,-97 328.0057,-91 328.0057,-91 328.0057,-79 328.0057,-79 328.0057,-73 334.0057,-67 340.0057,-67 340.0057,-67 393.9063,-67 393.9063,-67 399.9063,-67 405.9063,-73 405.9063,-79 405.9063,-79 405.9063,-91 405.9063,-91 405.9063,-97 399.9063,-103 393.9063,-103"/>
<text text-anchor="middle" x="366.956" y="-82" font-family="Helvetica,sans-Serif" font-size="10.00" fill="#000000">Notification</text>
</g>
<!-- A11&#45;&gt;A17 -->
<g id="edge24" class="edge">
<title>A11&#45;&gt;A17</title>
<path fill="none" stroke="#000000" d="M415.2207,-174.9412C408.3942,-169.7807 401.6187,-163.7121 396.404,-157 386.3363,-144.0415 379.1916,-127.1639 374.4631,-113.0068"/>
<polygon fill="#000000" stroke="#000000" points="371.4399,-103.274 378.7038,-111.489 372.9231,-108.049 374.4064,-112.8239 374.4064,-112.8239 374.4064,-112.8239 372.9231,-108.049 370.1089,-114.1588 371.4399,-103.274 371.4399,-103.274"/>
<text text-anchor="middle" x="419.732" y="-136" font-family="Helvetica,sans-Serif" font-size="10.00" fill="#000000">&#45;Ex: RING</text>
</g>
<!-- A11&#45;&gt;A18 -->
<g id="edge25" class="edge">
<title>A11&#45;&gt;A18</title>
<path fill="none" stroke="#000000" d="M444.3847,-174.9363C444.6047,-159.8016 446.5913,-138.0051 454.904,-121 456.6639,-117.3999 458.9208,-113.9326 461.4398,-110.6664"/>
<polygon fill="#000000" stroke="#000000" points="468.1071,-103.0006 464.9399,-113.4991 464.8258,-106.7733 461.5445,-110.546 461.5445,-110.546 461.5445,-110.546 464.8258,-106.7733 458.1491,-107.5928 468.1071,-103.0006 468.1071,-103.0006"/>
<text text-anchor="middle" x="478.982" y="-136" font-family="Helvetica,sans-Serif" font-size="10.00" fill="#000000">&#45;Ex: +CMT</text>
</g>
<!-- A12&#45;&gt;A5 -->
<g id="edge15" class="edge">
<title>A12&#45;&gt;A5</title>
<path fill="none" stroke="#000000" d="M174.8929,-228.6367C173.981,-203.7233 174.2023,-158.0698 184.956,-121 194.1438,-89.328 213.668,-56.4188 227.2913,-35.8362"/>
<polygon fill="#000000" stroke="#000000" points="233.0771,-27.2955 231.1941,-38.0985 230.2728,-31.4351 227.4685,-35.5746 227.4685,-35.5746 227.4685,-35.5746 230.2728,-31.4351 223.7428,-33.0508 233.0771,-27.2955 233.0771,-27.2955"/>
</g>
<!-- A13&#45;&gt;A5 -->
<g id="edge17" class="edge">
<title>A13&#45;&gt;A5</title>
<path fill="none" stroke="#000000" d="M221.4458,-120.9693C225.5721,-99.6502 232.4642,-64.0407 237.1075,-40.0507"/>
<polygon fill="#000000" stroke="#000000" points="239.0646,-29.939 241.5823,-40.6119 238.1144,-34.8479 237.1643,-39.7568 237.1643,-39.7568 237.1643,-39.7568 238.1144,-34.8479 232.7463,-38.9017 239.0646,-29.939 239.0646,-29.939"/>
</g>
<!-- A14&#45;&gt;A5 -->
<g id="edge19" class="edge">
<title>A14&#45;&gt;A5</title>
<path fill="none" stroke="#000000" d="M275.4088,-228.8618C270.4502,-193.8465 259.0146,-114.5193 247.956,-48 247.506,-45.293 247.0183,-42.4644 246.5221,-39.6507"/>
<polygon fill="#000000" stroke="#000000" points="244.7395,-29.768 250.9433,-38.8103 245.6271,-34.6886 246.5147,-39.6092 246.5147,-39.6092 246.5147,-39.6092 245.6271,-34.6886 242.0862,-40.4081 244.7395,-29.768 244.7395,-29.768"/>
</g>
<!-- A15&#45;&gt;A5 -->
<g id="edge21" class="edge">
<title>A15&#45;&gt;A5</title>
<path fill="none" stroke="#000000" d="M332.7734,-174.8942C324.0365,-146.2593 304.4915,-89.5148 275.956,-48 271.8235,-41.9879 266.4737,-36.1808 261.246,-31.1583"/>
<polygon fill="#000000" stroke="#000000" points="253.8302,-24.4285 264.2597,-27.8164 257.5329,-27.7887 261.2355,-31.1488 261.2355,-31.1488 261.2355,-31.1488 257.5329,-27.7887 258.2114,-34.4812 253.8302,-24.4285 253.8302,-24.4285"/>
</g>
<!-- A16&#45;&gt;A11 -->
<g id="edge23" class="edge">
<title>A16&#45;&gt;A11</title>
<path fill="none" stroke="#000000" d="M410.0807,-282.6793C416.6974,-265.6649 426.6406,-240.0967 434.2191,-220.6091"/>
<polygon fill="#000000" stroke="#000000" points="437.9365,-211.0502 438.506,-222.0013 436.1242,-215.7102 434.312,-220.3702 434.312,-220.3702 434.312,-220.3702 436.1242,-215.7102 430.1179,-218.7392 437.9365,-211.0502 437.9365,-211.0502"/>
</g>
<!-- A17&#45;&gt;A5 -->
<g id="edge27" class="edge">
<title>A17&#45;&gt;A5</title>
<path fill="none" stroke="#000000" d="M343.0153,-66.9226C334.119,-60.5742 323.7941,-53.6278 313.956,-48 298.3969,-39.0995 280.014,-30.7066 265.7177,-24.6123"/>
<polygon fill="#000000" stroke="#000000" points="256.1288,-20.6065 267.0906,-20.309 260.7424,-22.5339 265.356,-24.4613 265.356,-24.4613 265.356,-24.4613 260.7424,-22.5339 263.6214,-28.6135 256.1288,-20.6065 256.1288,-20.6065"/>
</g>
<!-- A18&#45;&gt;A5 -->
<g id="edge28" class="edge">
<title>A18&#45;&gt;A5</title>
<path fill="none" stroke="#000000" d="M426.0898,-66.9733C374.102,-52.2993 303.5069,-32.3732 266.6572,-21.9721"/>
<polygon fill="#000000" stroke="#000000" points="256.7814,-19.1846 267.6278,-17.5703 261.5934,-20.5428 266.4054,-21.9011 266.4054,-21.9011 266.4054,-21.9011 261.5934,-20.5428 265.183,-26.2319 256.7814,-19.1846 256.7814,-19.1846"/>
</g>
</g>
</svg>
